<svg width="81" height="36" viewBox="0 0 81 36" fill="none" xmlns="http://www.w3.org/2000/svg">
<path d="M79.5 17L66.0355 3.53553C64.0829 1.58291 60.9171 1.58291 58.9645 3.53553L49.0355 13.4645C47.0829 15.4171 43.9171 15.4171 41.9645 13.4645L32.0355 3.53553C30.0829 1.58291 26.9171 1.58291 24.9645 3.53553L15.0355 13.4645C13.0829 15.4171 9.91709 15.4171 7.96447 13.4645L2 7.5" stroke="#FBA457" stroke-width="3" stroke-linecap="round"/>
<path d="M79.5 34L66.0355 20.5355C64.0829 18.5829 60.9171 18.5829 58.9645 20.5355L49.0355 30.4645C47.0829 32.4171 43.9171 32.4171 41.9645 30.4645L32.0355 20.5355C30.0829 18.5829 26.9171 18.5829 24.9645 20.5355L15.0355 30.4645C13.0829 32.4171 9.91709 32.4171 7.96447 30.4645L2 24.5" stroke="#FBA457" stroke-width="3" stroke-linecap="round"/>
</svg>
