<svg width="86" height="41" viewBox="0 0 86 41" fill="none" xmlns="http://www.w3.org/2000/svg">
<circle cx="2.5" cy="38.5" r="2.5" transform="rotate(-90 2.5 38.5)" fill="#FBA457"/>
<circle cx="11.5" cy="38.5" r="2.5" transform="rotate(-90 11.5 38.5)" fill="#FBA457"/>
<circle cx="20.5" cy="38.5" r="2.5" transform="rotate(-90 20.5 38.5)" fill="#FBA457"/>
<circle cx="29.5" cy="38.5" r="2.5" transform="rotate(-90 29.5 38.5)" fill="#FBA457"/>
<circle cx="38.5" cy="38.5" r="2.5" transform="rotate(-90 38.5 38.5)" fill="#FBA457"/>
<circle cx="47.5" cy="38.5" r="2.5" transform="rotate(-90 47.5 38.5)" fill="#FBA457"/>
<circle cx="56.5" cy="38.5" r="2.5" transform="rotate(-90 56.5 38.5)" fill="#FBA457"/>
<circle cx="65.5" cy="38.5" r="2.5" transform="rotate(-90 65.5 38.5)" fill="#FBA457"/>
<circle cx="74.5" cy="38.5" r="2.5" transform="rotate(-90 74.5 38.5)" fill="#FBA457"/>
<circle cx="83.5" cy="38.5" r="2.5" transform="rotate(-90 83.5 38.5)" fill="#FBA457"/>
<circle cx="2.5" cy="29.5" r="2.5" transform="rotate(-90 2.5 29.5)" fill="#FBA457"/>
<circle cx="11.5" cy="29.5" r="2.5" transform="rotate(-90 11.5 29.5)" fill="#FBA457"/>
<circle cx="20.5" cy="29.5" r="2.5" transform="rotate(-90 20.5 29.5)" fill="#FBA457"/>
<circle cx="29.5" cy="29.5" r="2.5" transform="rotate(-90 29.5 29.5)" fill="#FBA457"/>
<circle cx="38.5" cy="29.5" r="2.5" transform="rotate(-90 38.5 29.5)" fill="#FBA457"/>
<circle cx="47.5" cy="29.5" r="2.5" transform="rotate(-90 47.5 29.5)" fill="#FBA457"/>
<circle cx="56.5" cy="29.5" r="2.5" transform="rotate(-90 56.5 29.5)" fill="#FBA457"/>
<circle cx="65.5" cy="29.5" r="2.5" transform="rotate(-90 65.5 29.5)" fill="#FBA457"/>
<circle cx="74.5" cy="29.5" r="2.5" transform="rotate(-90 74.5 29.5)" fill="#FBA457"/>
<circle cx="83.5" cy="29.5" r="2.5" transform="rotate(-90 83.5 29.5)" fill="#FBA457"/>
<circle cx="2.5" cy="20.5" r="2.5" transform="rotate(-90 2.5 20.5)" fill="#FBA457"/>
<circle cx="11.5" cy="20.5" r="2.5" transform="rotate(-90 11.5 20.5)" fill="#FBA457"/>
<circle cx="20.5" cy="20.5" r="2.5" transform="rotate(-90 20.5 20.5)" fill="#FBA457"/>
<circle cx="29.5" cy="20.5" r="2.5" transform="rotate(-90 29.5 20.5)" fill="#FBA457"/>
<circle cx="38.5" cy="20.5" r="2.5" transform="rotate(-90 38.5 20.5)" fill="#FBA457"/>
<circle cx="47.5" cy="20.5" r="2.5" transform="rotate(-90 47.5 20.5)" fill="#FBA457"/>
<circle cx="56.5" cy="20.5" r="2.5" transform="rotate(-90 56.5 20.5)" fill="#FBA457"/>
<circle cx="65.5" cy="20.5" r="2.5" transform="rotate(-90 65.5 20.5)" fill="#FBA457"/>
<circle cx="74.5" cy="20.5" r="2.5" transform="rotate(-90 74.5 20.5)" fill="#FBA457"/>
<circle cx="83.5" cy="20.5" r="2.5" transform="rotate(-90 83.5 20.5)" fill="#FBA457"/>
<circle cx="2.5" cy="11.5" r="2.5" transform="rotate(-90 2.5 11.5)" fill="#FBA457"/>
<circle cx="11.5" cy="11.5" r="2.5" transform="rotate(-90 11.5 11.5)" fill="#FBA457"/>
<circle cx="20.5" cy="11.5" r="2.5" transform="rotate(-90 20.5 11.5)" fill="#FBA457"/>
<circle cx="29.5" cy="11.5" r="2.5" transform="rotate(-90 29.5 11.5)" fill="#FBA457"/>
<circle cx="38.5" cy="11.5" r="2.5" transform="rotate(-90 38.5 11.5)" fill="#FBA457"/>
<circle cx="47.5" cy="11.5" r="2.5" transform="rotate(-90 47.5 11.5)" fill="#FBA457"/>
<circle cx="56.5" cy="11.5" r="2.5" transform="rotate(-90 56.5 11.5)" fill="#FBA457"/>
<circle cx="65.5" cy="11.5" r="2.5" transform="rotate(-90 65.5 11.5)" fill="#FBA457"/>
<circle cx="74.5" cy="11.5" r="2.5" transform="rotate(-90 74.5 11.5)" fill="#FBA457"/>
<circle cx="83.5" cy="11.5" r="2.5" transform="rotate(-90 83.5 11.5)" fill="#FBA457"/>
<circle cx="2.5" cy="2.5" r="2.5" transform="rotate(-90 2.5 2.5)" fill="#FBA457"/>
<circle cx="11.5" cy="2.5" r="2.5" transform="rotate(-90 11.5 2.5)" fill="#FBA457"/>
<circle cx="20.5" cy="2.5" r="2.5" transform="rotate(-90 20.5 2.5)" fill="#FBA457"/>
<circle cx="29.5" cy="2.5" r="2.5" transform="rotate(-90 29.5 2.5)" fill="#FBA457"/>
<circle cx="38.5" cy="2.5" r="2.5" transform="rotate(-90 38.5 2.5)" fill="#FBA457"/>
<circle cx="47.5" cy="2.5" r="2.5" transform="rotate(-90 47.5 2.5)" fill="#FBA457"/>
<circle cx="56.5" cy="2.5" r="2.5" transform="rotate(-90 56.5 2.5)" fill="#FBA457"/>
<circle cx="65.5" cy="2.5" r="2.5" transform="rotate(-90 65.5 2.5)" fill="#FBA457"/>
<circle cx="74.5" cy="2.5" r="2.5" transform="rotate(-90 74.5 2.5)" fill="#FBA457"/>
<circle cx="83.5" cy="2.5" r="2.5" transform="rotate(-90 83.5 2.5)" fill="#FBA457"/>
</svg>
