<svg width="420" height="317" viewBox="0 0 420 317" fill="none" xmlns="http://www.w3.org/2000/svg">
<g clip-path="url(#clip0_600_2584)">
<path d="M359.832 171.725C359.832 220.482 331.25 263.617 287.433 289.875C259.34 306.713 224.981 316.615 187.881 316.615C138.458 316.615 100.757 297.934 72.3978 269.317C46.2583 242.948 28.0574 208.134 15.9298 171.725C-38.2106 9.16367 52.2315 -35.1851 187.881 26.8346C274.25 66.3273 359.832 91.7063 359.832 171.725Z" fill="#1DBF73"/>
<path d="M287.433 86.6228V290.26C259.34 307.099 224.98 317 187.881 317C138.457 317 100.757 298.319 72.3975 269.703V86.6228H287.433Z" fill="#F2F2F2"/>
<path d="M93.0802 185.847C104.339 182.265 116.021 180.182 127.823 179.652C133.738 179.4 139.662 179.632 145.539 180.345C151.359 181.115 157.108 182.346 162.733 184.027C168.29 185.636 173.77 187.495 179.309 189.165C184.935 190.884 190.655 192.28 196.441 193.346C202.196 194.388 208.009 195.081 213.848 195.421C219.629 195.757 225.468 195.823 231.233 195.207C236.618 194.688 241.893 193.351 246.875 191.241C251.522 189.213 255.816 186.459 259.596 183.081C260.54 182.239 261.448 181.359 262.32 180.443C262.834 179.905 262.018 179.086 261.502 179.625C254.132 187.33 244.445 192.108 233.938 193.703C228.214 194.572 222.381 194.623 216.606 194.399C210.703 194.171 204.819 193.576 198.989 192.618C193.23 191.663 187.533 190.366 181.927 188.734C176.421 187.139 170.99 185.3 165.503 183.641C159.968 181.903 154.318 180.557 148.594 179.612C142.853 178.738 137.051 178.335 131.245 178.408C119.643 178.593 108.116 180.301 96.9578 183.486C95.5564 183.879 94.1614 184.295 92.7729 184.732C92.0654 184.954 92.3674 186.07 93.0802 185.847H93.0802Z" fill="#3F3D56"/>
<path d="M93.0802 215.138C104.339 211.556 116.021 209.473 127.823 208.943C133.738 208.691 139.662 208.923 145.539 209.636C151.359 210.406 157.108 211.637 162.733 213.317C168.29 214.927 173.77 216.786 179.309 218.456C184.935 220.175 190.655 221.571 196.441 222.637C202.196 223.679 208.009 224.372 213.848 224.712C219.629 225.048 225.468 225.114 231.233 224.498C236.618 223.979 241.893 222.642 246.875 220.532C251.522 218.504 255.816 215.75 259.596 212.372C260.54 211.53 261.448 210.65 262.32 209.734C262.834 209.196 262.018 208.377 261.502 208.916C254.132 216.621 244.445 221.399 233.938 222.994C228.214 223.863 222.381 223.914 216.606 223.69C210.703 223.462 204.819 222.867 198.989 221.909C193.23 220.954 187.533 219.657 181.927 218.025C176.421 216.43 170.99 214.591 165.503 212.932C159.968 211.194 154.318 209.848 148.594 208.903C142.853 208.029 137.051 207.626 131.245 207.699C119.643 207.884 108.116 209.592 96.9578 212.777C95.5564 213.17 94.1614 213.586 92.7729 214.023C92.0654 214.244 92.3674 215.361 93.0802 215.138H93.0802Z" fill="#3F3D56"/>
<path d="M93.0802 159.254C104.339 155.672 116.021 153.589 127.823 153.059C133.738 152.807 139.662 153.039 145.539 153.752C151.359 154.522 157.108 155.753 162.733 157.433C168.29 159.043 173.77 160.902 179.309 162.572C184.935 164.291 190.655 165.687 196.441 166.753C202.196 167.795 208.009 168.488 213.848 168.828C219.629 169.164 225.468 169.23 231.233 168.614C236.618 168.095 241.893 166.758 246.875 164.648C251.522 162.62 255.816 159.866 259.596 156.488C260.54 155.646 261.448 154.766 262.32 153.85C262.834 153.312 262.018 152.493 261.502 153.032C254.132 160.737 244.445 165.515 233.938 167.11C228.214 167.979 222.381 168.03 216.606 167.806C210.703 167.578 204.819 166.983 198.989 166.025C193.23 165.07 187.533 163.773 181.927 162.141C176.421 160.546 170.99 158.707 165.503 157.048C159.968 155.31 154.318 153.964 148.594 153.019C142.853 152.145 137.051 151.742 131.245 151.815C119.643 152 108.116 153.708 96.9578 156.893C95.5564 157.286 94.1614 157.702 92.7729 158.139C92.0654 158.36 92.3674 159.477 93.0802 159.254H93.0802Z" fill="#3F3D56"/>
<path d="M91.7033 108.974C94.5004 107.734 97.7047 107.95 100.608 108.669C103.738 109.444 106.685 110.791 109.767 111.723C115.282 113.367 121.141 113.478 126.714 112.045C129.852 111.244 132.846 109.961 135.59 108.24C136.218 107.845 135.639 106.844 135.006 107.241C130.116 110.295 124.463 111.907 118.698 111.891C115.806 111.887 112.931 111.464 110.161 110.634C107.102 109.717 104.178 108.385 101.079 107.595C97.7962 106.759 94.2755 106.577 91.1198 107.975C90.4409 108.276 91.0284 109.273 91.7033 108.974Z" fill="#3F3D56"/>
<path d="M177.603 286.264C187.393 286.264 195.33 278.326 195.33 268.535C195.33 258.744 187.393 250.806 177.603 250.806C167.813 250.806 159.876 258.744 159.876 268.535C159.876 278.326 167.813 286.264 177.603 286.264Z" fill="#3F3D56"/>
<path d="M82.0317 50.3945C87.3525 50.3945 91.6659 46.0807 91.6659 40.7594C91.6659 35.438 87.3525 31.1242 82.0317 31.1242C76.7108 31.1242 72.3975 35.438 72.3975 40.7594C72.3975 46.0807 76.7108 50.3945 82.0317 50.3945Z" fill="#F2F2F2"/>
<path d="M166.427 74.6752C170.045 74.6752 172.979 71.7418 172.979 68.1233C172.979 64.5047 170.045 61.5714 166.427 61.5714C162.809 61.5714 159.876 64.5047 159.876 68.1233C159.876 71.7418 162.809 74.6752 166.427 74.6752Z" fill="#F2F2F2"/>
<path d="M60.0659 137.497C63.6841 137.497 66.6172 134.563 66.6172 130.945C66.6172 127.326 63.6841 124.393 60.0659 124.393C56.4477 124.393 53.5146 127.326 53.5146 130.945C53.5146 134.563 56.4477 137.497 60.0659 137.497Z" fill="#F2F2F2"/>
<path d="M33.6892 82.2707H32.9668V211.476H33.6892V82.2707Z" fill="#3F3D56"/>
<path d="M33.4677 200.403C41.2482 200.403 47.5555 186.008 47.5555 168.251C47.5555 150.494 41.2482 136.099 33.4677 136.099C25.6872 136.099 19.3799 150.494 19.3799 168.251C19.3799 186.008 25.6872 200.403 33.4677 200.403Z" fill="#3F3D56"/>
<path d="M33.4677 127.067C41.2482 127.067 47.5555 112.672 47.5555 94.9149C47.5555 77.1576 41.2482 62.7625 33.4677 62.7625C25.6872 62.7625 19.3799 77.1576 19.3799 94.9149C19.3799 112.672 25.6872 127.067 33.4677 127.067Z" fill="#3F3D56"/>
<path d="M33.8132 68.6464L33.121 68.439C33.1648 68.2929 37.412 53.7368 30.4381 44.3662C26.4992 39.0739 19.7401 36.3904 10.3486 36.3904V35.6678C19.9825 35.6678 26.9371 38.4502 31.0196 43.9375C38.2094 53.6018 33.858 68.4972 33.8132 68.6464Z" fill="#3F3D56"/>
<path d="M10.349 45.0606C15.3365 45.0606 19.3796 41.0171 19.3796 36.0291C19.3796 31.0411 15.3365 26.9975 10.349 26.9975C5.36152 26.9975 1.31836 31.0411 1.31836 36.0291C1.31836 41.0171 5.36152 45.0606 10.349 45.0606Z" fill="#3F3D56"/>
<path d="M297.019 240.755L290.263 302.921H336.882L338.909 298.191L341.612 302.921H385.529C385.529 302.921 382.151 238.728 376.07 236.701C369.989 234.674 297.019 240.755 297.019 240.755Z" fill="#2F2E41"/>
<path d="M336.883 104.261C349.943 104.261 360.531 93.6721 360.531 80.6105C360.531 67.549 349.943 56.9605 336.883 56.9605C323.823 56.9605 313.235 67.549 313.235 80.6105C313.235 93.6721 323.823 104.261 336.883 104.261Z" fill="#FFB8B8"/>
<path d="M323.368 95.4763C323.368 95.4763 325.395 117.099 323.368 118.451C321.341 119.802 355.799 119.126 355.799 119.126C355.799 119.126 351.07 99.5306 355.799 90.0706L323.368 95.4763Z" fill="#FFB8B8"/>
<path d="M335.532 113.721C335.532 113.721 352.917 116.429 354.359 111.02L363.233 123.181L363.909 244.809C363.909 244.809 291.615 253.594 288.912 239.404C286.21 225.214 316.614 113.045 316.614 113.045L324.268 112.549C324.268 112.549 334.181 113.721 335.532 113.721Z" fill="#D0CDE1"/>
<path d="M324.152 107L312.559 111.018L279.452 119.126L280.803 200.212C280.803 200.212 252.426 281.298 265.263 287.38C278.101 293.461 296.343 279.271 301.748 269.135C307.153 258.999 326.072 118.451 326.072 115.748C326.072 113.045 324.152 107 324.152 107Z" fill="#3F3D56"/>
<path d="M353.923 107L358.501 111.018L390.933 125.883L374.717 207.645C374.717 207.645 396.338 281.974 388.23 286.028C380.122 290.082 367.961 301.57 365.258 294.812C362.555 288.055 346.641 114.47 353.923 107Z" fill="#3F3D56"/>
<path d="M372.691 215.078C372.691 215.078 342.287 202.239 341.611 213.727C340.936 225.214 376.069 233.322 376.069 229.944C376.069 226.565 372.691 215.078 372.691 215.078Z" fill="#FFB8B8"/>
<path d="M298.37 210.348C298.37 210.348 333.504 236.701 319.991 243.458C306.478 250.215 288.911 219.808 288.911 219.808L298.37 210.348Z" fill="#FFB8B8"/>
<path d="M347.381 45.9669C347.492 45.7318 347.671 45.5352 347.894 45.4025C348.118 45.2698 348.376 45.2069 348.636 45.222C337.809 44.5744 326.406 45.8363 317.349 51.803C314.812 53.474 312.443 55.5174 309.555 56.4591L311.899 58.2975L309.099 59.1514L313.22 61.8155C312.804 62.2888 312.27 62.6435 311.673 62.8437C311.075 63.0439 310.435 63.0824 309.818 62.9555C311.609 63.4789 312.928 65.0731 313.598 66.815C314.268 68.557 314.388 70.4541 314.501 72.317C315.194 69.629 318.127 68.0468 320.898 67.886C323.668 67.7252 326.371 68.6395 329.067 69.2968C334.94 70.7241 341.04 70.9588 347.005 69.9869C344.98 74.0525 346.688 78.9018 348.408 83.1061L351.841 91.5007C353.747 91.6925 355.095 89.7967 356.531 88.5286C357.839 87.3728 352.629 97.538 353.435 97.1655C354.483 96.6817 365.544 84.4688 366.062 83.437C368.425 78.7296 369.843 73.479 369.63 68.2159C369.417 62.9529 367.491 57.6873 363.864 53.8682C361.401 51.2755 357.994 50.8214 355.483 48.6666C354.495 47.8185 354.492 47.1559 353.134 46.6614C352.683 46.4972 347.455 45.8014 347.381 45.9669Z" fill="#2F2E41"/>
<path d="M284.181 121.153L279.452 119.126L241.616 181.292C241.616 181.292 234.859 197.509 247.021 204.942C259.183 212.375 287.56 234.674 287.56 234.674L303.775 209.672C303.775 209.672 270.669 194.131 272.695 188.049C274.722 181.968 285.533 165.751 285.533 165.751L284.181 121.153Z" fill="#3F3D56"/>
<path d="M382.15 124.532L390.934 125.883C390.934 125.883 427.419 197.509 418.635 211.024C409.852 224.538 374.043 243.458 374.043 243.458C374.043 243.458 373.367 221.159 367.286 213.051L388.231 204.942L376.745 160.345L382.15 124.532Z" fill="#3F3D56"/>
</g>
<defs>
<clipPath id="clip0_600_2584">
<rect width="420" height="317" fill="white"/>
</clipPath>
</defs>
</svg>
