<svg width="20" height="20" viewBox="0 0 20 20" fill="none" xmlns="http://www.w3.org/2000/svg">
<path d="M11.0589 10L15.7714 5.28749C15.8429 5.21841 15.9 5.13578 15.9392 5.04442C15.9785 4.95305 15.9991 4.85479 16 4.75536C16.0008 4.65593 15.9819 4.55732 15.9442 4.46529C15.9066 4.37326 15.851 4.28965 15.7807 4.21933C15.7104 4.14902 15.6267 4.09342 15.5347 4.05577C15.4427 4.01811 15.3441 3.99917 15.2446 4.00003C15.1452 4.00089 15.0469 4.02155 14.9556 4.0608C14.8642 4.10004 14.7816 4.15709 14.7125 4.22862L10 8.94113L5.28749 4.22862C5.14625 4.09221 4.95709 4.01673 4.76075 4.01843C4.5644 4.02014 4.37658 4.0989 4.23774 4.23774C4.09889 4.37658 4.02014 4.5644 4.01843 4.76075C4.01673 4.95709 4.09221 5.14626 4.22862 5.28749L8.94113 10L4.22862 14.7125C4.15709 14.7816 4.10004 14.8642 4.0608 14.9556C4.02155 15.0469 4.00089 15.1452 4.00003 15.2446C3.99916 15.3441 4.01811 15.4427 4.05576 15.5347C4.09342 15.6267 4.14902 15.7104 4.21933 15.7807C4.28964 15.851 4.37326 15.9066 4.46529 15.9442C4.55732 15.9819 4.65593 16.0008 4.75536 16C4.85479 15.9991 4.95305 15.9785 5.04442 15.9392C5.13578 15.9 5.21841 15.8429 5.28749 15.7714L10 11.0589L14.7125 15.7714C14.817 15.8768 14.9504 15.9488 15.0959 15.9781C15.2414 16.0074 15.3923 15.9927 15.5294 15.9359C15.6665 15.8791 15.7836 15.7828 15.8658 15.6592C15.948 15.5356 15.9915 15.3904 15.9908 15.2419C15.9908 15.1436 15.9715 15.0462 15.9338 14.9554C15.8962 14.8645 15.841 14.782 15.7714 14.7125L11.0589 10Z" fill="#222222"/>
</svg>
